<svg width="87" height="84" xmlns="http://www.w3.org/2000/svg"><g fill-rule="nonzero" stroke="#2B2925" stroke-width="2" fill="none"><path d="M76.372 25.482l-22.35-2.048L45.146 3.07c-.622-1.425-2.668-1.425-3.29 0l-8.878 20.365-22.349 2.048c-1.565.143-2.197 2.066-1.017 3.09l16.863 14.634-4.935 21.63c-.346 1.515 1.31 2.703 2.662 1.91L43.5 55.427l19.3 11.32c1.35.794 3.006-.395 2.661-1.91l-4.935-21.63 16.863-14.633c1.18-1.025.548-2.948-1.017-3.091z"/><path d="M20.92 2.13c1.107 1.54 4.232 8.152 6.02 12.005.28.606-.479 1.153-.964.694-3.084-2.918-8.357-7.983-9.464-9.523a2.72 2.72 0 01.617-3.794 2.714 2.714 0 013.79.618zM66.08 2.13c-1.107 1.54-4.232 8.152-6.02 12.005-.28.606.479 1.153.964.694 3.084-2.918 8.357-7.983 9.464-9.523a2.72 2.72 0 00-.617-3.794 2.714 2.714 0 00-3.79.618zM84.104 48.268c-1.824-.635-9.153-1.686-13.413-2.262-.67-.09-.963.872-.373 1.22 3.76 2.221 10.258 5.993 12.082 6.628 1.442.503 2.993-.34 3.464-1.882.47-1.542-.318-3.2-1.76-3.704zM2.896 48.268c1.824-.635 9.153-1.686 13.413-2.262.67-.09.963.872.373 1.22-3.76 2.221-10.258 5.993-12.082 6.628-1.442.503-2.993-.34-3.464-1.882-.47-1.542.318-3.2 1.76-3.704zM41 80.195c0-1.958 1.462-9.382 2.344-13.687.14-.677 1.173-.677 1.312 0C45.538 70.813 47 78.238 47 80.195 47 81.745 45.657 83 44 83s-3-1.256-3-2.805z"/></g></svg>