<svg width="84" height="84" xmlns="http://www.w3.org/2000/svg"><g transform="translate(1 1)" fill-rule="nonzero" stroke="#2B2925" stroke-width="2" fill="none"><path d="M81.592 48.305l-8.828-7.738 8.516-8.072a1.19 1.19 0 00.338-1.151 1.205 1.205 0 00-.84-.865l-11.334-3.25 4.19-10.9c.153-.4.079-.851-.195-1.183a1.221 1.221 0 00-1.134-.426l-11.65 1.867-.947-11.622a1.199 1.199 0 00-.69-.986 1.227 1.227 0 00-1.209.096l-9.714 6.621L42.195.6C41.976.23 41.576 0 41.142 0c-.433 0-.834.228-1.05.6l-6.774 11.59-11.717-6.72a1.226 1.226 0 00-1.213-.002 1.196 1.196 0 00-.61 1.036l-.028 11.659-11.76-.963a1.22 1.22 0 00-1.098.511 1.186 1.186 0 00-.1 1.195L11.83 29.45.786 33.563a1.19 1.19 0 00-.341 2.049l9.125 7.391-8.19 8.394c-.3.308-.412.752-.293 1.163.12.412.453.729.874.832l11.453 2.81-3.755 11.054c-.138.406-.046.853.24 1.174.288.322.727.467 1.151.382l11.567-2.313 1.406 11.576a1.2 1.2 0 00.727.959c.399.168.858.114 1.205-.143l9.445-6.99 6.295 9.54c.223.349.61.559 1.026.559l.048-.001c.433-.017.824-.26 1.026-.64l5.498-9.994 9.967 6.242c.367.23.828.248 1.213.05.384-.199.631-.585.65-1.013l.488-11.649 11.714 1.416c.43.052.856-.127 1.116-.469.261-.342.317-.795.148-1.19l-4.616-10.73 11.197-3.684a1.19 1.19 0 00.422-2.034z"/><ellipse cx="41" cy="40.5" rx="25" ry="24.5"/></g></svg>