<svg width="74" height="84" xmlns="http://www.w3.org/2000/svg"><g fill-rule="nonzero" stroke="#2B2925" stroke-width="2" fill="none"><path d="M24.514 44.371a2.832 2.832 0 002.131 2.358l12.899 3.196c.604.15.61 1 .006 1.149l-12.912 3.2a2.822 2.822 0 00-2.124 2.356l-3.42 24.857c-.094.684-1.09.684-1.185 0L16.49 56.63a2.823 2.823 0 00-2.124-2.356c-3.144-.778-9.49-2.35-12.913-3.2-.604-.149-.604-.997 0-1.146l12.913-3.2a2.822 2.822 0 002.124-2.357l3.42-24.857c.093-.684 1.09-.686 1.184-.002l3.42 24.86zM53.512 18.588a1.834 1.834 0 01-1.39-1.52L49.938 1.385c-.071-.515-.799-.513-.87.002l-2.183 15.68a1.828 1.828 0 01-1.385 1.52l-8.165 2c-.448.11-.448.758 0 .867l8.165 2c.737.18 1.283.782 1.386 1.52l2.175 15.635c.073.521.811.521.884 0l2.175-15.636a1.828 1.828 0 011.386-1.52l8.159-1.998c.45-.11.443-.76-.006-.871l-8.148-1.996zM66.629 65.553a1.456 1.456 0 01-1.085-1.219l-1.62-11.958c-.069-.507-.777-.498-.846.009l-1.619 11.95a1.451 1.451 0 01-1.08 1.217l-6.053 1.523c-.435.11-.435.746 0 .855l6.052 1.523a1.45 1.45 0 011.081 1.218l1.619 11.949c.069.507.778.507.847 0l1.619-11.95a1.451 1.451 0 011.08-1.217l6.052-1.523c.435-.11.43-.747-.005-.856l-6.042-1.521z"/></g></svg>