<svg width="86" height="90" xmlns="http://www.w3.org/2000/svg"><g fill-rule="nonzero" stroke="#2B2925" stroke-width="2" fill="none"><path d="M51.06 38.485C28.587 48.495 18.939 86 18.939 86l-4.235-9.968L4.824 86l4.234-17.088L2 70.336C9.998 42.117 32.125 30.312 44.375 25.81c.351-.13 1.313-.732 2.884-1.809L52 28.924l-.94 9.56z"/><path d="M75.912 28.354a1.572 1.572 0 00-.434 1.359l2.028 12.477a1.523 1.523 0 01-2.196 1.638l-10.596-5.853a1.443 1.443 0 00-1.428 0L52.69 43.828a1.522 1.522 0 01-2.198-1.638l.588-3.585 1.442-8.892a1.572 1.572 0 00-.434-1.359l-4.731-4.859h-.014l-3.892-3.991a1.581 1.581 0 01.84-2.66l11.898-1.821a1.508 1.508 0 001.148-.854l5.305-11.287a1.487 1.487 0 012.716 0l5.305 11.287c.214.46.646.78 1.148.854l11.898 1.82a1.58 1.58 0 01.84 2.661l-8.637 8.85zM71 51l3.536 6.464L81 61l-6.464 3.536L71 71l-3.536-6.464L61 61l6.464-3.536zM46 63l3.536 6.464L56 73l-6.464 3.536L46 83l-3.536-6.464L36 73l6.464-3.536zM16 2l3.536 6.464L26 12l-6.464 3.536L16 22l-3.536-6.464L6 12l6.464-3.536z"/></g></svg>